<svg width="88" height="88" viewBox="0 0 88 88" fill="none" xmlns="http://www.w3.org/2000/svg">
<path d="M35.3686 25.5065L35.3687 25.5064C39.5104 19.0448 41.9648 13.0729 43.2484 8.8393C43.6409 7.5449 45.2737 7.07806 46.1928 7.94501L46.1928 7.94504C64.5303 25.2385 70.469 38.3803 71.6582 53.5395C72.0917 60.8623 70.5047 67.7229 66.4535 72.7436C62.4132 77.7507 55.8637 80.9999 46.2129 80.9999C37.1559 80.9999 29.3227 77.8409 23.9823 72.2164C18.6455 66.5955 15.7563 58.4683 16.6656 48.4455C17.7563 36.4218 22.4311 27.2623 26.1656 21.8134C27.1354 20.3985 29.1845 20.3445 30.3437 21.6943L33.7157 25.621L33.7158 25.6211C34.1655 26.1446 34.9945 26.0897 35.3686 25.5065Z" fill="#191919" stroke="white"/>
</svg>
